<?xml version="1.0" encoding="utf-8" standalone="no"?>
<!DOCTYPE svg PUBLIC "-//W3C//DTD SVG 1.1//EN"
  "http://www.w3.org/Graphics/SVG/1.1/DTD/svg11.dtd">
<!-- Created with matplotlib (https://matplotlib.org/) -->
<svg height="288pt" version="1.1" viewBox="0 0 432 288" width="432pt" xmlns="http://www.w3.org/2000/svg" xmlns:xlink="http://www.w3.org/1999/xlink">
 <defs>
  <style type="text/css">
*{stroke-linecap:butt;stroke-linejoin:round;}
  </style>
 </defs>
 <g id="figure_1">
  <g id="patch_1">
   <path d="M 0 288 
L 432 288 
L 432 0 
L 0 0 
z
" style="fill:#ffffff;"/>
  </g>
  <g id="axes_1">
   <g id="patch_2">
    <path d="M 54 252 
L 388.8 252 
L 388.8 34.56 
L 54 34.56 
z
" style="fill:#ffffff;"/>
   </g>
   <g id="PathCollection_1">
    <defs>
     <path d="M 0 3 
C 0.795609 3 1.55874 2.683901 2.12132 2.12132 
C 2.683901 1.55874 3 0.795609 3 0 
C 3 -0.795609 2.683901 -1.55874 2.12132 -2.12132 
C 1.55874 -2.683901 0.795609 -3 0 -3 
C -0.795609 -3 -1.55874 -2.683901 -2.12132 -2.12132 
C -2.683901 -1.55874 -3 -0.795609 -3 0 
C -3 0.795609 -2.683901 1.55874 -2.12132 2.12132 
C -1.55874 2.683901 -0.795609 3 0 3 
z
" id="m1624d07b43" style="stroke:#1f77b4;"/>
    </defs>
    <g clip-path="url(#pa547e2bedb)">
     <use style="fill:#1f77b4;stroke:#1f77b4;" x="265.185491" xlink:href="#m1624d07b43" y="90.436738"/>
     <use style="fill:#1f77b4;stroke:#1f77b4;" x="203.272994" xlink:href="#m1624d07b43" y="209.773583"/>
     <use style="fill:#1f77b4;stroke:#1f77b4;" x="229.537022" xlink:href="#m1624d07b43" y="206.91939"/>
     <use style="fill:#1f77b4;stroke:#1f77b4;" x="286.831149" xlink:href="#m1624d07b43" y="124.187144"/>
     <use style="fill:#1f77b4;stroke:#1f77b4;" x="269.884014" xlink:href="#m1624d07b43" y="203.323243"/>
     <use style="fill:#1f77b4;stroke:#1f77b4;" x="140.745866" xlink:href="#m1624d07b43" y="88.2032"/>
     <use style="fill:#1f77b4;stroke:#1f77b4;" x="228.236507" xlink:href="#m1624d07b43" y="175.270196"/>
     <use style="fill:#1f77b4;stroke:#1f77b4;" x="178.237613" xlink:href="#m1624d07b43" y="187.600753"/>
     <use style="fill:#1f77b4;stroke:#1f77b4;" x="180.4228" xlink:href="#m1624d07b43" y="88.967005"/>
     <use style="fill:#1f77b4;stroke:#1f77b4;" x="203.746965" xlink:href="#m1624d07b43" y="105.308493"/>
     <use style="fill:#1f77b4;stroke:#1f77b4;" x="191.647001" xlink:href="#m1624d07b43" y="91.012634"/>
     <use style="fill:#1f77b4;stroke:#1f77b4;" x="251.123427" xlink:href="#m1624d07b43" y="126.527115"/>
     <use style="fill:#1f77b4;stroke:#1f77b4;" x="219.654762" xlink:href="#m1624d07b43" y="191.802992"/>
     <use style="fill:#1f77b4;stroke:#1f77b4;" x="190.631606" xlink:href="#m1624d07b43" y="89.442633"/>
     <use style="fill:#1f77b4;stroke:#1f77b4;" x="205.25698" xlink:href="#m1624d07b43" y="169.89174"/>
     <use style="fill:#1f77b4;stroke:#1f77b4;" x="200.255078" xlink:href="#m1624d07b43" y="130.35325"/>
     <use style="fill:#1f77b4;stroke:#1f77b4;" x="252.930356" xlink:href="#m1624d07b43" y="125.005082"/>
     <use style="fill:#1f77b4;stroke:#1f77b4;" x="175.795374" xlink:href="#m1624d07b43" y="165.718221"/>
     <use style="fill:#1f77b4;stroke:#1f77b4;" x="199.319663" xlink:href="#m1624d07b43" y="137.311142"/>
     <use style="fill:#1f77b4;stroke:#1f77b4;" x="146.337582" xlink:href="#m1624d07b43" y="125.930155"/>
     <use style="fill:#1f77b4;stroke:#1f77b4;" x="69.218182" xlink:href="#m1624d07b43" y="146.089121"/>
     <use style="fill:#1f77b4;stroke:#1f77b4;" x="214.778591" xlink:href="#m1624d07b43" y="200.600225"/>
     <use style="fill:#1f77b4;stroke:#1f77b4;" x="224.34842" xlink:href="#m1624d07b43" y="148.977048"/>
     <use style="fill:#1f77b4;stroke:#1f77b4;" x="151.418552" xlink:href="#m1624d07b43" y="111.001396"/>
     <use style="fill:#1f77b4;stroke:#1f77b4;" x="288.141281" xlink:href="#m1624d07b43" y="185.647321"/>
     <use style="fill:#1f77b4;stroke:#1f77b4;" x="119.088998" xlink:href="#m1624d07b43" y="165.51967"/>
     <use style="fill:#1f77b4;stroke:#1f77b4;" x="187.185461" xlink:href="#m1624d07b43" y="176.065597"/>
     <use style="fill:#1f77b4;stroke:#1f77b4;" x="176.611302" xlink:href="#m1624d07b43" y="91.688386"/>
     <use style="fill:#1f77b4;stroke:#1f77b4;" x="254.687105" xlink:href="#m1624d07b43" y="135.160899"/>
     <use style="fill:#1f77b4;stroke:#1f77b4;" x="251.808205" xlink:href="#m1624d07b43" y="144.942764"/>
     <use style="fill:#1f77b4;stroke:#1f77b4;" x="192.14197" xlink:href="#m1624d07b43" y="188.430382"/>
     <use style="fill:#1f77b4;stroke:#1f77b4;" x="202.27457" xlink:href="#m1624d07b43" y="140.075068"/>
     <use style="fill:#1f77b4;stroke:#1f77b4;" x="144.808261" xlink:href="#m1624d07b43" y="184.899914"/>
     <use style="fill:#1f77b4;stroke:#1f77b4;" x="95.19226" xlink:href="#m1624d07b43" y="158.817077"/>
     <use style="fill:#1f77b4;stroke:#1f77b4;" x="169.315221" xlink:href="#m1624d07b43" y="183.478374"/>
     <use style="fill:#1f77b4;stroke:#1f77b4;" x="192.205591" xlink:href="#m1624d07b43" y="135.008038"/>
     <use style="fill:#1f77b4;stroke:#1f77b4;" x="240.955976" xlink:href="#m1624d07b43" y="138.695818"/>
     <use style="fill:#1f77b4;stroke:#1f77b4;" x="239.688995" xlink:href="#m1624d07b43" y="167.686491"/>
     <use style="fill:#1f77b4;stroke:#1f77b4;" x="167.526036" xlink:href="#m1624d07b43" y="145.365871"/>
     <use style="fill:#1f77b4;stroke:#1f77b4;" x="171.385608" xlink:href="#m1624d07b43" y="200.366078"/>
     <use style="fill:#1f77b4;stroke:#1f77b4;" x="137.510413" xlink:href="#m1624d07b43" y="215.073844"/>
     <use style="fill:#1f77b4;stroke:#1f77b4;" x="120.648175" xlink:href="#m1624d07b43" y="143.763403"/>
     <use style="fill:#1f77b4;stroke:#1f77b4;" x="107.654074" xlink:href="#m1624d07b43" y="153.83652"/>
     <use style="fill:#1f77b4;stroke:#1f77b4;" x="273.661575" xlink:href="#m1624d07b43" y="136.537256"/>
     <use style="fill:#1f77b4;stroke:#1f77b4;" x="161.973212" xlink:href="#m1624d07b43" y="71.968962"/>
     <use style="fill:#1f77b4;stroke:#1f77b4;" x="165.22241" xlink:href="#m1624d07b43" y="125.107487"/>
     <use style="fill:#1f77b4;stroke:#1f77b4;" x="128.239058" xlink:href="#m1624d07b43" y="193.708761"/>
     <use style="fill:#1f77b4;stroke:#1f77b4;" x="220.401611" xlink:href="#m1624d07b43" y="118.734669"/>
     <use style="fill:#1f77b4;stroke:#1f77b4;" x="111.847213" xlink:href="#m1624d07b43" y="208.597111"/>
     <use style="fill:#1f77b4;stroke:#1f77b4;" x="175.451197" xlink:href="#m1624d07b43" y="177.041854"/>
     <use style="fill:#1f77b4;stroke:#1f77b4;" x="144.459599" xlink:href="#m1624d07b43" y="162.513341"/>
     <use style="fill:#1f77b4;stroke:#1f77b4;" x="202.671311" xlink:href="#m1624d07b43" y="96.708763"/>
     <use style="fill:#1f77b4;stroke:#1f77b4;" x="161.920875" xlink:href="#m1624d07b43" y="187.501026"/>
     <use style="fill:#1f77b4;stroke:#1f77b4;" x="131.514824" xlink:href="#m1624d07b43" y="190.518095"/>
     <use style="fill:#1f77b4;stroke:#1f77b4;" x="183.829003" xlink:href="#m1624d07b43" y="163.629212"/>
     <use style="fill:#1f77b4;stroke:#1f77b4;" x="204.551951" xlink:href="#m1624d07b43" y="184.498997"/>
     <use style="fill:#1f77b4;stroke:#1f77b4;" x="188.127779" xlink:href="#m1624d07b43" y="118.379359"/>
     <use style="fill:#1f77b4;stroke:#1f77b4;" x="198.838678" xlink:href="#m1624d07b43" y="199.881108"/>
     <use style="fill:#1f77b4;stroke:#1f77b4;" x="156.313961" xlink:href="#m1624d07b43" y="202.375659"/>
     <use style="fill:#1f77b4;stroke:#1f77b4;" x="168.642074" xlink:href="#m1624d07b43" y="176.164086"/>
     <use style="fill:#1f77b4;stroke:#1f77b4;" x="154.582713" xlink:href="#m1624d07b43" y="178.388091"/>
     <use style="fill:#1f77b4;stroke:#1f77b4;" x="168.78679" xlink:href="#m1624d07b43" y="88.723596"/>
     <use style="fill:#1f77b4;stroke:#1f77b4;" x="148.196437" xlink:href="#m1624d07b43" y="124.924974"/>
     <use style="fill:#1f77b4;stroke:#1f77b4;" x="106.745633" xlink:href="#m1624d07b43" y="156.758979"/>
     <use style="fill:#1f77b4;stroke:#1f77b4;" x="193.162366" xlink:href="#m1624d07b43" y="205.255443"/>
     <use style="fill:#1f77b4;stroke:#1f77b4;" x="166.869907" xlink:href="#m1624d07b43" y="128.805389"/>
     <use style="fill:#1f77b4;stroke:#1f77b4;" x="111.10727" xlink:href="#m1624d07b43" y="196.936713"/>
     <use style="fill:#1f77b4;stroke:#1f77b4;" x="206.115788" xlink:href="#m1624d07b43" y="217.050418"/>
     <use style="fill:#1f77b4;stroke:#1f77b4;" x="143.922508" xlink:href="#m1624d07b43" y="116.111715"/>
     <use style="fill:#1f77b4;stroke:#1f77b4;" x="187.466308" xlink:href="#m1624d07b43" y="148.286181"/>
     <use style="fill:#1f77b4;stroke:#1f77b4;" x="218.204556" xlink:href="#m1624d07b43" y="125.979939"/>
     <use style="fill:#1f77b4;stroke:#1f77b4;" x="190.96334" xlink:href="#m1624d07b43" y="148.220249"/>
     <use style="fill:#1f77b4;stroke:#1f77b4;" x="236.830126" xlink:href="#m1624d07b43" y="128.344884"/>
     <use style="fill:#1f77b4;stroke:#1f77b4;" x="129.054765" xlink:href="#m1624d07b43" y="184.039044"/>
     <use style="fill:#1f77b4;stroke:#1f77b4;" x="203.372154" xlink:href="#m1624d07b43" y="198.193552"/>
     <use style="fill:#1f77b4;stroke:#1f77b4;" x="154.022115" xlink:href="#m1624d07b43" y="134.817403"/>
     <use style="fill:#1f77b4;stroke:#1f77b4;" x="145.57944" xlink:href="#m1624d07b43" y="189.6675"/>
     <use style="fill:#1f77b4;stroke:#1f77b4;" x="158.83207" xlink:href="#m1624d07b43" y="185.461973"/>
     <use style="fill:#1f77b4;stroke:#1f77b4;" x="170.965725" xlink:href="#m1624d07b43" y="176.818314"/>
     <use style="fill:#1f77b4;stroke:#1f77b4;" x="187.657867" xlink:href="#m1624d07b43" y="159.34716"/>
     <use style="fill:#1f77b4;stroke:#1f77b4;" x="132.217628" xlink:href="#m1624d07b43" y="173.067885"/>
     <use style="fill:#1f77b4;stroke:#1f77b4;" x="226.000317" xlink:href="#m1624d07b43" y="210.777955"/>
     <use style="fill:#1f77b4;stroke:#1f77b4;" x="206.246531" xlink:href="#m1624d07b43" y="183.765452"/>
     <use style="fill:#1f77b4;stroke:#1f77b4;" x="115.372237" xlink:href="#m1624d07b43" y="242.116364"/>
     <use style="fill:#1f77b4;stroke:#1f77b4;" x="252.665851" xlink:href="#m1624d07b43" y="136.899228"/>
     <use style="fill:#1f77b4;stroke:#1f77b4;" x="271.170077" xlink:href="#m1624d07b43" y="219.166353"/>
     <use style="fill:#1f77b4;stroke:#1f77b4;" x="238.617687" xlink:href="#m1624d07b43" y="200.784261"/>
     <use style="fill:#1f77b4;stroke:#1f77b4;" x="176.940817" xlink:href="#m1624d07b43" y="158.066001"/>
     <use style="fill:#1f77b4;stroke:#1f77b4;" x="136.502684" xlink:href="#m1624d07b43" y="187.309261"/>
     <use style="fill:#1f77b4;stroke:#1f77b4;" x="232.973963" xlink:href="#m1624d07b43" y="103.000001"/>
     <use style="fill:#1f77b4;stroke:#1f77b4;" x="166.806537" xlink:href="#m1624d07b43" y="207.745718"/>
     <use style="fill:#1f77b4;stroke:#1f77b4;" x="240.599833" xlink:href="#m1624d07b43" y="150.128982"/>
     <use style="fill:#1f77b4;stroke:#1f77b4;" x="194.562714" xlink:href="#m1624d07b43" y="161.44372"/>
     <use style="fill:#1f77b4;stroke:#1f77b4;" x="229.441743" xlink:href="#m1624d07b43" y="203.137458"/>
     <use style="fill:#1f77b4;stroke:#1f77b4;" x="201.285159" xlink:href="#m1624d07b43" y="140.665029"/>
     <use style="fill:#1f77b4;stroke:#1f77b4;" x="217.182404" xlink:href="#m1624d07b43" y="166.329004"/>
     <use style="fill:#1f77b4;stroke:#1f77b4;" x="185.584941" xlink:href="#m1624d07b43" y="131.485923"/>
     <use style="fill:#1f77b4;stroke:#1f77b4;" x="266.175902" xlink:href="#m1624d07b43" y="129.57583"/>
     <use style="fill:#1f77b4;stroke:#1f77b4;" x="190.869337" xlink:href="#m1624d07b43" y="80.091512"/>
     <use style="fill:#1f77b4;stroke:#1f77b4;" x="203.356163" xlink:href="#m1624d07b43" y="110.626789"/>
    </g>
   </g>
   <g id="PathCollection_2">
    <defs>
     <path d="M 0 3 
C 0.795609 3 1.55874 2.683901 2.12132 2.12132 
C 2.683901 1.55874 3 0.795609 3 0 
C 3 -0.795609 2.683901 -1.55874 2.12132 -2.12132 
C 1.55874 -2.683901 0.795609 -3 0 -3 
C -0.795609 -3 -1.55874 -2.683901 -2.12132 -2.12132 
C -2.683901 -1.55874 -3 -0.795609 -3 0 
C -3 0.795609 -2.683901 1.55874 -2.12132 2.12132 
C -1.55874 2.683901 -0.795609 3 0 3 
z
" id="m70e3001854" style="stroke:#ff7f0e;"/>
    </defs>
    <g clip-path="url(#pa547e2bedb)">
     <use style="fill:#ff7f0e;stroke:#ff7f0e;" x="312.910656" xlink:href="#m70e3001854" y="110.249723"/>
     <use style="fill:#ff7f0e;stroke:#ff7f0e;" x="315.85678" xlink:href="#m70e3001854" y="55.498445"/>
     <use style="fill:#ff7f0e;stroke:#ff7f0e;" x="346.248865" xlink:href="#m70e3001854" y="88.303046"/>
     <use style="fill:#ff7f0e;stroke:#ff7f0e;" x="336.162438" xlink:href="#m70e3001854" y="98.68232"/>
     <use style="fill:#ff7f0e;stroke:#ff7f0e;" x="335.818983" xlink:href="#m70e3001854" y="73.814034"/>
     <use style="fill:#ff7f0e;stroke:#ff7f0e;" x="284.589998" xlink:href="#m70e3001854" y="94.629363"/>
     <use style="fill:#ff7f0e;stroke:#ff7f0e;" x="320.737826" xlink:href="#m70e3001854" y="110.761871"/>
     <use style="fill:#ff7f0e;stroke:#ff7f0e;" x="304.53891" xlink:href="#m70e3001854" y="110.991964"/>
     <use style="fill:#ff7f0e;stroke:#ff7f0e;" x="327.643387" xlink:href="#m70e3001854" y="73.308194"/>
     <use style="fill:#ff7f0e;stroke:#ff7f0e;" x="319.062241" xlink:href="#m70e3001854" y="89.067794"/>
     <use style="fill:#ff7f0e;stroke:#ff7f0e;" x="341.948233" xlink:href="#m70e3001854" y="88.589993"/>
     <use style="fill:#ff7f0e;stroke:#ff7f0e;" x="328.489838" xlink:href="#m70e3001854" y="66.217027"/>
     <use style="fill:#ff7f0e;stroke:#ff7f0e;" x="339.137195" xlink:href="#m70e3001854" y="106.931006"/>
     <use style="fill:#ff7f0e;stroke:#ff7f0e;" x="310.703668" xlink:href="#m70e3001854" y="99.614946"/>
     <use style="fill:#ff7f0e;stroke:#ff7f0e;" x="299.853913" xlink:href="#m70e3001854" y="93.228751"/>
     <use style="fill:#ff7f0e;stroke:#ff7f0e;" x="311.983081" xlink:href="#m70e3001854" y="84.378308"/>
     <use style="fill:#ff7f0e;stroke:#ff7f0e;" x="320.903644" xlink:href="#m70e3001854" y="86.899615"/>
     <use style="fill:#ff7f0e;stroke:#ff7f0e;" x="329.89554" xlink:href="#m70e3001854" y="91.419024"/>
     <use style="fill:#ff7f0e;stroke:#ff7f0e;" x="372.569359" xlink:href="#m70e3001854" y="87.258909"/>
     <use style="fill:#ff7f0e;stroke:#ff7f0e;" x="320.330847" xlink:href="#m70e3001854" y="88.102506"/>
     <use style="fill:#ff7f0e;stroke:#ff7f0e;" x="299.592927" xlink:href="#m70e3001854" y="99.410443"/>
     <use style="fill:#ff7f0e;stroke:#ff7f0e;" x="313.437227" xlink:href="#m70e3001854" y="101.135143"/>
     <use style="fill:#ff7f0e;stroke:#ff7f0e;" x="310.767744" xlink:href="#m70e3001854" y="81.051027"/>
     <use style="fill:#ff7f0e;stroke:#ff7f0e;" x="332.218112" xlink:href="#m70e3001854" y="102.574208"/>
     <use style="fill:#ff7f0e;stroke:#ff7f0e;" x="286.318575" xlink:href="#m70e3001854" y="107.494823"/>
     <use style="fill:#ff7f0e;stroke:#ff7f0e;" x="322.725809" xlink:href="#m70e3001854" y="91.888205"/>
     <use style="fill:#ff7f0e;stroke:#ff7f0e;" x="324.842175" xlink:href="#m70e3001854" y="89.032587"/>
     <use style="fill:#ff7f0e;stroke:#ff7f0e;" x="326.559754" xlink:href="#m70e3001854" y="44.443636"/>
     <use style="fill:#ff7f0e;stroke:#ff7f0e;" x="307.732707" xlink:href="#m70e3001854" y="99.135194"/>
     <use style="fill:#ff7f0e;stroke:#ff7f0e;" x="315.889859" xlink:href="#m70e3001854" y="68.700659"/>
     <use style="fill:#ff7f0e;stroke:#ff7f0e;" x="288.968127" xlink:href="#m70e3001854" y="72.321723"/>
     <use style="fill:#ff7f0e;stroke:#ff7f0e;" x="310.093102" xlink:href="#m70e3001854" y="108.078222"/>
     <use style="fill:#ff7f0e;stroke:#ff7f0e;" x="308.96866" xlink:href="#m70e3001854" y="71.840361"/>
     <use style="fill:#ff7f0e;stroke:#ff7f0e;" x="330.733019" xlink:href="#m70e3001854" y="107.984694"/>
     <use style="fill:#ff7f0e;stroke:#ff7f0e;" x="295.04815" xlink:href="#m70e3001854" y="135.230371"/>
     <use style="fill:#ff7f0e;stroke:#ff7f0e;" x="339.020763" xlink:href="#m70e3001854" y="74.923288"/>
     <use style="fill:#ff7f0e;stroke:#ff7f0e;" x="355.210184" xlink:href="#m70e3001854" y="118.54857"/>
     <use style="fill:#ff7f0e;stroke:#ff7f0e;" x="274.307625" xlink:href="#m70e3001854" y="77.792938"/>
     <use style="fill:#ff7f0e;stroke:#ff7f0e;" x="330.964725" xlink:href="#m70e3001854" y="98.753102"/>
     <use style="fill:#ff7f0e;stroke:#ff7f0e;" x="336.653697" xlink:href="#m70e3001854" y="55.472218"/>
     <use style="fill:#ff7f0e;stroke:#ff7f0e;" x="306.822084" xlink:href="#m70e3001854" y="66.387568"/>
     <use style="fill:#ff7f0e;stroke:#ff7f0e;" x="312.2731" xlink:href="#m70e3001854" y="94.493919"/>
     <use style="fill:#ff7f0e;stroke:#ff7f0e;" x="318.273972" xlink:href="#m70e3001854" y="98.823774"/>
     <use style="fill:#ff7f0e;stroke:#ff7f0e;" x="314.531013" xlink:href="#m70e3001854" y="108.542368"/>
     <use style="fill:#ff7f0e;stroke:#ff7f0e;" x="314.276306" xlink:href="#m70e3001854" y="94.26375"/>
     <use style="fill:#ff7f0e;stroke:#ff7f0e;" x="283.249794" xlink:href="#m70e3001854" y="91.298397"/>
     <use style="fill:#ff7f0e;stroke:#ff7f0e;" x="347.444357" xlink:href="#m70e3001854" y="92.855951"/>
     <use style="fill:#ff7f0e;stroke:#ff7f0e;" x="345.793995" xlink:href="#m70e3001854" y="83.226787"/>
     <use style="fill:#ff7f0e;stroke:#ff7f0e;" x="302.829074" xlink:href="#m70e3001854" y="75.436661"/>
     <use style="fill:#ff7f0e;stroke:#ff7f0e;" x="288.006607" xlink:href="#m70e3001854" y="79.663377"/>
     <use style="fill:#ff7f0e;stroke:#ff7f0e;" x="333.116534" xlink:href="#m70e3001854" y="100.232999"/>
     <use style="fill:#ff7f0e;stroke:#ff7f0e;" x="308.221329" xlink:href="#m70e3001854" y="112.673918"/>
     <use style="fill:#ff7f0e;stroke:#ff7f0e;" x="324.511858" xlink:href="#m70e3001854" y="60.920627"/>
     <use style="fill:#ff7f0e;stroke:#ff7f0e;" x="314.042177" xlink:href="#m70e3001854" y="98.853537"/>
     <use style="fill:#ff7f0e;stroke:#ff7f0e;" x="336.98577" xlink:href="#m70e3001854" y="98.167348"/>
     <use style="fill:#ff7f0e;stroke:#ff7f0e;" x="337.058636" xlink:href="#m70e3001854" y="95.746114"/>
     <use style="fill:#ff7f0e;stroke:#ff7f0e;" x="304.821114" xlink:href="#m70e3001854" y="120.158591"/>
     <use style="fill:#ff7f0e;stroke:#ff7f0e;" x="289.891824" xlink:href="#m70e3001854" y="94.948014"/>
     <use style="fill:#ff7f0e;stroke:#ff7f0e;" x="285.362094" xlink:href="#m70e3001854" y="94.979074"/>
     <use style="fill:#ff7f0e;stroke:#ff7f0e;" x="335.1437" xlink:href="#m70e3001854" y="74.66402"/>
     <use style="fill:#ff7f0e;stroke:#ff7f0e;" x="294.306486" xlink:href="#m70e3001854" y="73.22169"/>
     <use style="fill:#ff7f0e;stroke:#ff7f0e;" x="309.786774" xlink:href="#m70e3001854" y="86.051152"/>
     <use style="fill:#ff7f0e;stroke:#ff7f0e;" x="307.75545" xlink:href="#m70e3001854" y="68.911423"/>
     <use style="fill:#ff7f0e;stroke:#ff7f0e;" x="320.096838" xlink:href="#m70e3001854" y="79.842322"/>
     <use style="fill:#ff7f0e;stroke:#ff7f0e;" x="277.342325" xlink:href="#m70e3001854" y="86.41041"/>
     <use style="fill:#ff7f0e;stroke:#ff7f0e;" x="325.574652" xlink:href="#m70e3001854" y="83.148773"/>
     <use style="fill:#ff7f0e;stroke:#ff7f0e;" x="333.180679" xlink:href="#m70e3001854" y="89.641781"/>
     <use style="fill:#ff7f0e;stroke:#ff7f0e;" x="323.296866" xlink:href="#m70e3001854" y="93.412872"/>
     <use style="fill:#ff7f0e;stroke:#ff7f0e;" x="314.23379" xlink:href="#m70e3001854" y="91.065294"/>
     <use style="fill:#ff7f0e;stroke:#ff7f0e;" x="323.500641" xlink:href="#m70e3001854" y="106.9529"/>
     <use style="fill:#ff7f0e;stroke:#ff7f0e;" x="330.347087" xlink:href="#m70e3001854" y="80.941597"/>
     <use style="fill:#ff7f0e;stroke:#ff7f0e;" x="258.360579" xlink:href="#m70e3001854" y="104.461794"/>
     <use style="fill:#ff7f0e;stroke:#ff7f0e;" x="365.683183" xlink:href="#m70e3001854" y="70.577552"/>
     <use style="fill:#ff7f0e;stroke:#ff7f0e;" x="330.14388" xlink:href="#m70e3001854" y="90.727793"/>
     <use style="fill:#ff7f0e;stroke:#ff7f0e;" x="306.482275" xlink:href="#m70e3001854" y="85.20672"/>
     <use style="fill:#ff7f0e;stroke:#ff7f0e;" x="312.416509" xlink:href="#m70e3001854" y="77.000618"/>
     <use style="fill:#ff7f0e;stroke:#ff7f0e;" x="332.496383" xlink:href="#m70e3001854" y="74.240065"/>
     <use style="fill:#ff7f0e;stroke:#ff7f0e;" x="318.654751" xlink:href="#m70e3001854" y="115.127057"/>
     <use style="fill:#ff7f0e;stroke:#ff7f0e;" x="275.199628" xlink:href="#m70e3001854" y="89.941889"/>
     <use style="fill:#ff7f0e;stroke:#ff7f0e;" x="368.147629" xlink:href="#m70e3001854" y="69.865654"/>
     <use style="fill:#ff7f0e;stroke:#ff7f0e;" x="318.78102" xlink:href="#m70e3001854" y="117.481402"/>
     <use style="fill:#ff7f0e;stroke:#ff7f0e;" x="344.444756" xlink:href="#m70e3001854" y="78.968499"/>
     <use style="fill:#ff7f0e;stroke:#ff7f0e;" x="305.58254" xlink:href="#m70e3001854" y="127.77654"/>
     <use style="fill:#ff7f0e;stroke:#ff7f0e;" x="356.161016" xlink:href="#m70e3001854" y="105.004444"/>
     <use style="fill:#ff7f0e;stroke:#ff7f0e;" x="327.789081" xlink:href="#m70e3001854" y="85.407364"/>
     <use style="fill:#ff7f0e;stroke:#ff7f0e;" x="335.108848" xlink:href="#m70e3001854" y="116.716998"/>
     <use style="fill:#ff7f0e;stroke:#ff7f0e;" x="297.5659" xlink:href="#m70e3001854" y="104.3212"/>
     <use style="fill:#ff7f0e;stroke:#ff7f0e;" x="348.779249" xlink:href="#m70e3001854" y="113.302634"/>
     <use style="fill:#ff7f0e;stroke:#ff7f0e;" x="336.946718" xlink:href="#m70e3001854" y="55.683047"/>
     <use style="fill:#ff7f0e;stroke:#ff7f0e;" x="350.837883" xlink:href="#m70e3001854" y="83.087836"/>
     <use style="fill:#ff7f0e;stroke:#ff7f0e;" x="307.034288" xlink:href="#m70e3001854" y="75.644079"/>
     <use style="fill:#ff7f0e;stroke:#ff7f0e;" x="310.372111" xlink:href="#m70e3001854" y="90.233156"/>
     <use style="fill:#ff7f0e;stroke:#ff7f0e;" x="373.581818" xlink:href="#m70e3001854" y="92.647969"/>
     <use style="fill:#ff7f0e;stroke:#ff7f0e;" x="297.230838" xlink:href="#m70e3001854" y="115.973829"/>
     <use style="fill:#ff7f0e;stroke:#ff7f0e;" x="318.204313" xlink:href="#m70e3001854" y="91.510444"/>
     <use style="fill:#ff7f0e;stroke:#ff7f0e;" x="347.093912" xlink:href="#m70e3001854" y="100.184027"/>
     <use style="fill:#ff7f0e;stroke:#ff7f0e;" x="323.508013" xlink:href="#m70e3001854" y="70.276659"/>
     <use style="fill:#ff7f0e;stroke:#ff7f0e;" x="334.521221" xlink:href="#m70e3001854" y="65.04693"/>
     <use style="fill:#ff7f0e;stroke:#ff7f0e;" x="312.223684" xlink:href="#m70e3001854" y="59.036026"/>
     <use style="fill:#ff7f0e;stroke:#ff7f0e;" x="329.689092" xlink:href="#m70e3001854" y="70.375869"/>
    </g>
   </g>
   <g id="PathCollection_3">
    <defs>
     <path d="M -2.5 5 
L 0 2.5 
L 2.5 5 
L 5 2.5 
L 2.5 0 
L 5 -2.5 
L 2.5 -5 
L 0 -2.5 
L -2.5 -5 
L -5 -2.5 
L -2.5 0 
L -5 2.5 
z
" id="m71b7f4b6aa" style="stroke:#000000;"/>
    </defs>
    <g clip-path="url(#pa547e2bedb)">
     <use style="stroke:#000000;" x="185.108304" xlink:href="#m71b7f4b6aa" y="159.99277"/>
    </g>
   </g>
   <g id="PathCollection_4">
    <g clip-path="url(#pa547e2bedb)">
     <use style="stroke:#000000;" x="321.289955" xlink:href="#m71b7f4b6aa" y="86.120793"/>
    </g>
   </g>
   <g id="matplotlib.axis_1">
    <g id="xtick_1">
     <g id="line2d_1">
      <path clip-path="url(#pa547e2bedb)" d="M 94.320537 252 
L 94.320537 34.56 
" style="fill:none;stroke:#b0b0b0;stroke-linecap:square;stroke-opacity:0.3;stroke-width:0.8;"/>
     </g>
     <g id="line2d_2">
      <defs>
       <path d="M 0 0 
L 0 3.5 
" id="medb173a29a" style="stroke:#000000;stroke-width:0.8;"/>
      </defs>
      <g>
       <use style="stroke:#000000;stroke-width:0.8;" x="94.320537" xlink:href="#medb173a29a" y="252"/>
      </g>
     </g>
     <g id="text_1">
      <!-- −1 -->
      <defs>
       <path d="M 10.59375 35.5 
L 73.1875 35.5 
L 73.1875 27.203125 
L 10.59375 27.203125 
z
" id="DejaVuSans-8722"/>
       <path d="M 12.40625 8.296875 
L 28.515625 8.296875 
L 28.515625 63.921875 
L 10.984375 60.40625 
L 10.984375 69.390625 
L 28.421875 72.90625 
L 38.28125 72.90625 
L 38.28125 8.296875 
L 54.390625 8.296875 
L 54.390625 0 
L 12.40625 0 
z
" id="DejaVuSans-49"/>
      </defs>
      <g transform="translate(86.949443 266.598437)scale(0.1 -0.1)">
       <use xlink:href="#DejaVuSans-8722"/>
       <use x="83.789062" xlink:href="#DejaVuSans-49"/>
      </g>
     </g>
    </g>
    <g id="xtick_2">
     <g id="line2d_3">
      <path clip-path="url(#pa547e2bedb)" d="M 139.714421 252 
L 139.714421 34.56 
" style="fill:none;stroke:#b0b0b0;stroke-linecap:square;stroke-opacity:0.3;stroke-width:0.8;"/>
     </g>
     <g id="line2d_4">
      <g>
       <use style="stroke:#000000;stroke-width:0.8;" x="139.714421" xlink:href="#medb173a29a" y="252"/>
      </g>
     </g>
     <g id="text_2">
      <!-- 0 -->
      <defs>
       <path d="M 31.78125 66.40625 
Q 24.171875 66.40625 20.328125 58.90625 
Q 16.5 51.421875 16.5 36.375 
Q 16.5 21.390625 20.328125 13.890625 
Q 24.171875 6.390625 31.78125 6.390625 
Q 39.453125 6.390625 43.28125 13.890625 
Q 47.125 21.390625 47.125 36.375 
Q 47.125 51.421875 43.28125 58.90625 
Q 39.453125 66.40625 31.78125 66.40625 
z
M 31.78125 74.21875 
Q 44.046875 74.21875 50.515625 64.515625 
Q 56.984375 54.828125 56.984375 36.375 
Q 56.984375 17.96875 50.515625 8.265625 
Q 44.046875 -1.421875 31.78125 -1.421875 
Q 19.53125 -1.421875 13.0625 8.265625 
Q 6.59375 17.96875 6.59375 36.375 
Q 6.59375 54.828125 13.0625 64.515625 
Q 19.53125 74.21875 31.78125 74.21875 
z
" id="DejaVuSans-48"/>
      </defs>
      <g transform="translate(136.533171 266.598437)scale(0.1 -0.1)">
       <use xlink:href="#DejaVuSans-48"/>
      </g>
     </g>
    </g>
    <g id="xtick_3">
     <g id="line2d_5">
      <path clip-path="url(#pa547e2bedb)" d="M 185.108304 252 
L 185.108304 34.56 
" style="fill:none;stroke:#b0b0b0;stroke-linecap:square;stroke-opacity:0.3;stroke-width:0.8;"/>
     </g>
     <g id="line2d_6">
      <g>
       <use style="stroke:#000000;stroke-width:0.8;" x="185.108304" xlink:href="#medb173a29a" y="252"/>
      </g>
     </g>
     <g id="text_3">
      <!-- 1 -->
      <g transform="translate(181.927054 266.598437)scale(0.1 -0.1)">
       <use xlink:href="#DejaVuSans-49"/>
      </g>
     </g>
    </g>
    <g id="xtick_4">
     <g id="line2d_7">
      <path clip-path="url(#pa547e2bedb)" d="M 230.502188 252 
L 230.502188 34.56 
" style="fill:none;stroke:#b0b0b0;stroke-linecap:square;stroke-opacity:0.3;stroke-width:0.8;"/>
     </g>
     <g id="line2d_8">
      <g>
       <use style="stroke:#000000;stroke-width:0.8;" x="230.502188" xlink:href="#medb173a29a" y="252"/>
      </g>
     </g>
     <g id="text_4">
      <!-- 2 -->
      <defs>
       <path d="M 19.1875 8.296875 
L 53.609375 8.296875 
L 53.609375 0 
L 7.328125 0 
L 7.328125 8.296875 
Q 12.9375 14.109375 22.625 23.890625 
Q 32.328125 33.6875 34.8125 36.53125 
Q 39.546875 41.84375 41.421875 45.53125 
Q 43.3125 49.21875 43.3125 52.78125 
Q 43.3125 58.59375 39.234375 62.25 
Q 35.15625 65.921875 28.609375 65.921875 
Q 23.96875 65.921875 18.8125 64.3125 
Q 13.671875 62.703125 7.8125 59.421875 
L 7.8125 69.390625 
Q 13.765625 71.78125 18.9375 73 
Q 24.125 74.21875 28.421875 74.21875 
Q 39.75 74.21875 46.484375 68.546875 
Q 53.21875 62.890625 53.21875 53.421875 
Q 53.21875 48.921875 51.53125 44.890625 
Q 49.859375 40.875 45.40625 35.40625 
Q 44.1875 33.984375 37.640625 27.21875 
Q 31.109375 20.453125 19.1875 8.296875 
z
" id="DejaVuSans-50"/>
      </defs>
      <g transform="translate(227.320938 266.598437)scale(0.1 -0.1)">
       <use xlink:href="#DejaVuSans-50"/>
      </g>
     </g>
    </g>
    <g id="xtick_5">
     <g id="line2d_9">
      <path clip-path="url(#pa547e2bedb)" d="M 275.896071 252 
L 275.896071 34.56 
" style="fill:none;stroke:#b0b0b0;stroke-linecap:square;stroke-opacity:0.3;stroke-width:0.8;"/>
     </g>
     <g id="line2d_10">
      <g>
       <use style="stroke:#000000;stroke-width:0.8;" x="275.896071" xlink:href="#medb173a29a" y="252"/>
      </g>
     </g>
     <g id="text_5">
      <!-- 3 -->
      <defs>
       <path d="M 40.578125 39.3125 
Q 47.65625 37.796875 51.625 33 
Q 55.609375 28.21875 55.609375 21.1875 
Q 55.609375 10.40625 48.1875 4.484375 
Q 40.765625 -1.421875 27.09375 -1.421875 
Q 22.515625 -1.421875 17.65625 -0.515625 
Q 12.796875 0.390625 7.625 2.203125 
L 7.625 11.71875 
Q 11.71875 9.328125 16.59375 8.109375 
Q 21.484375 6.890625 26.8125 6.890625 
Q 36.078125 6.890625 40.9375 10.546875 
Q 45.796875 14.203125 45.796875 21.1875 
Q 45.796875 27.640625 41.28125 31.265625 
Q 36.765625 34.90625 28.71875 34.90625 
L 20.21875 34.90625 
L 20.21875 43.015625 
L 29.109375 43.015625 
Q 36.375 43.015625 40.234375 45.921875 
Q 44.09375 48.828125 44.09375 54.296875 
Q 44.09375 59.90625 40.109375 62.90625 
Q 36.140625 65.921875 28.71875 65.921875 
Q 24.65625 65.921875 20.015625 65.03125 
Q 15.375 64.15625 9.8125 62.3125 
L 9.8125 71.09375 
Q 15.4375 72.65625 20.34375 73.4375 
Q 25.25 74.21875 29.59375 74.21875 
Q 40.828125 74.21875 47.359375 69.109375 
Q 53.90625 64.015625 53.90625 55.328125 
Q 53.90625 49.265625 50.4375 45.09375 
Q 46.96875 40.921875 40.578125 39.3125 
z
" id="DejaVuSans-51"/>
      </defs>
      <g transform="translate(272.714821 266.598437)scale(0.1 -0.1)">
       <use xlink:href="#DejaVuSans-51"/>
      </g>
     </g>
    </g>
    <g id="xtick_6">
     <g id="line2d_11">
      <path clip-path="url(#pa547e2bedb)" d="M 321.289955 252 
L 321.289955 34.56 
" style="fill:none;stroke:#b0b0b0;stroke-linecap:square;stroke-opacity:0.3;stroke-width:0.8;"/>
     </g>
     <g id="line2d_12">
      <g>
       <use style="stroke:#000000;stroke-width:0.8;" x="321.289955" xlink:href="#medb173a29a" y="252"/>
      </g>
     </g>
     <g id="text_6">
      <!-- 4 -->
      <defs>
       <path d="M 37.796875 64.3125 
L 12.890625 25.390625 
L 37.796875 25.390625 
z
M 35.203125 72.90625 
L 47.609375 72.90625 
L 47.609375 25.390625 
L 58.015625 25.390625 
L 58.015625 17.1875 
L 47.609375 17.1875 
L 47.609375 0 
L 37.796875 0 
L 37.796875 17.1875 
L 4.890625 17.1875 
L 4.890625 26.703125 
z
" id="DejaVuSans-52"/>
      </defs>
      <g transform="translate(318.108705 266.598437)scale(0.1 -0.1)">
       <use xlink:href="#DejaVuSans-52"/>
      </g>
     </g>
    </g>
    <g id="xtick_7">
     <g id="line2d_13">
      <path clip-path="url(#pa547e2bedb)" d="M 366.683839 252 
L 366.683839 34.56 
" style="fill:none;stroke:#b0b0b0;stroke-linecap:square;stroke-opacity:0.3;stroke-width:0.8;"/>
     </g>
     <g id="line2d_14">
      <g>
       <use style="stroke:#000000;stroke-width:0.8;" x="366.683839" xlink:href="#medb173a29a" y="252"/>
      </g>
     </g>
     <g id="text_7">
      <!-- 5 -->
      <defs>
       <path d="M 10.796875 72.90625 
L 49.515625 72.90625 
L 49.515625 64.59375 
L 19.828125 64.59375 
L 19.828125 46.734375 
Q 21.96875 47.46875 24.109375 47.828125 
Q 26.265625 48.1875 28.421875 48.1875 
Q 40.625 48.1875 47.75 41.5 
Q 54.890625 34.8125 54.890625 23.390625 
Q 54.890625 11.625 47.5625 5.09375 
Q 40.234375 -1.421875 26.90625 -1.421875 
Q 22.3125 -1.421875 17.546875 -0.640625 
Q 12.796875 0.140625 7.71875 1.703125 
L 7.71875 11.625 
Q 12.109375 9.234375 16.796875 8.0625 
Q 21.484375 6.890625 26.703125 6.890625 
Q 35.15625 6.890625 40.078125 11.328125 
Q 45.015625 15.765625 45.015625 23.390625 
Q 45.015625 31 40.078125 35.4375 
Q 35.15625 39.890625 26.703125 39.890625 
Q 22.75 39.890625 18.8125 39.015625 
Q 14.890625 38.140625 10.796875 36.28125 
z
" id="DejaVuSans-53"/>
      </defs>
      <g transform="translate(363.502589 266.598437)scale(0.1 -0.1)">
       <use xlink:href="#DejaVuSans-53"/>
      </g>
     </g>
    </g>
    <g id="text_8">
     <!-- Dimension 1 -->
     <defs>
      <path d="M 19.671875 64.796875 
L 19.671875 8.109375 
L 31.59375 8.109375 
Q 46.6875 8.109375 53.6875 14.9375 
Q 60.6875 21.78125 60.6875 36.53125 
Q 60.6875 51.171875 53.6875 57.984375 
Q 46.6875 64.796875 31.59375 64.796875 
z
M 9.8125 72.90625 
L 30.078125 72.90625 
Q 51.265625 72.90625 61.171875 64.09375 
Q 71.09375 55.28125 71.09375 36.53125 
Q 71.09375 17.671875 61.125 8.828125 
Q 51.171875 0 30.078125 0 
L 9.8125 0 
z
" id="DejaVuSans-68"/>
      <path d="M 9.421875 54.6875 
L 18.40625 54.6875 
L 18.40625 0 
L 9.421875 0 
z
M 9.421875 75.984375 
L 18.40625 75.984375 
L 18.40625 64.59375 
L 9.421875 64.59375 
z
" id="DejaVuSans-105"/>
      <path d="M 52 44.1875 
Q 55.375 50.25 60.0625 53.125 
Q 64.75 56 71.09375 56 
Q 79.640625 56 84.28125 50.015625 
Q 88.921875 44.046875 88.921875 33.015625 
L 88.921875 0 
L 79.890625 0 
L 79.890625 32.71875 
Q 79.890625 40.578125 77.09375 44.375 
Q 74.3125 48.1875 68.609375 48.1875 
Q 61.625 48.1875 57.5625 43.546875 
Q 53.515625 38.921875 53.515625 30.90625 
L 53.515625 0 
L 44.484375 0 
L 44.484375 32.71875 
Q 44.484375 40.625 41.703125 44.40625 
Q 38.921875 48.1875 33.109375 48.1875 
Q 26.21875 48.1875 22.15625 43.53125 
Q 18.109375 38.875 18.109375 30.90625 
L 18.109375 0 
L 9.078125 0 
L 9.078125 54.6875 
L 18.109375 54.6875 
L 18.109375 46.1875 
Q 21.1875 51.21875 25.484375 53.609375 
Q 29.78125 56 35.6875 56 
Q 41.65625 56 45.828125 52.96875 
Q 50 49.953125 52 44.1875 
z
" id="DejaVuSans-109"/>
      <path d="M 56.203125 29.59375 
L 56.203125 25.203125 
L 14.890625 25.203125 
Q 15.484375 15.921875 20.484375 11.0625 
Q 25.484375 6.203125 34.421875 6.203125 
Q 39.59375 6.203125 44.453125 7.46875 
Q 49.3125 8.734375 54.109375 11.28125 
L 54.109375 2.78125 
Q 49.265625 0.734375 44.1875 -0.34375 
Q 39.109375 -1.421875 33.890625 -1.421875 
Q 20.796875 -1.421875 13.15625 6.1875 
Q 5.515625 13.8125 5.515625 26.8125 
Q 5.515625 40.234375 12.765625 48.109375 
Q 20.015625 56 32.328125 56 
Q 43.359375 56 49.78125 48.890625 
Q 56.203125 41.796875 56.203125 29.59375 
z
M 47.21875 32.234375 
Q 47.125 39.59375 43.09375 43.984375 
Q 39.0625 48.390625 32.421875 48.390625 
Q 24.90625 48.390625 20.390625 44.140625 
Q 15.875 39.890625 15.1875 32.171875 
z
" id="DejaVuSans-101"/>
      <path d="M 54.890625 33.015625 
L 54.890625 0 
L 45.90625 0 
L 45.90625 32.71875 
Q 45.90625 40.484375 42.875 44.328125 
Q 39.84375 48.1875 33.796875 48.1875 
Q 26.515625 48.1875 22.3125 43.546875 
Q 18.109375 38.921875 18.109375 30.90625 
L 18.109375 0 
L 9.078125 0 
L 9.078125 54.6875 
L 18.109375 54.6875 
L 18.109375 46.1875 
Q 21.34375 51.125 25.703125 53.5625 
Q 30.078125 56 35.796875 56 
Q 45.21875 56 50.046875 50.171875 
Q 54.890625 44.34375 54.890625 33.015625 
z
" id="DejaVuSans-110"/>
      <path d="M 44.28125 53.078125 
L 44.28125 44.578125 
Q 40.484375 46.53125 36.375 47.5 
Q 32.28125 48.484375 27.875 48.484375 
Q 21.1875 48.484375 17.84375 46.4375 
Q 14.5 44.390625 14.5 40.28125 
Q 14.5 37.15625 16.890625 35.375 
Q 19.28125 33.59375 26.515625 31.984375 
L 29.59375 31.296875 
Q 39.15625 29.25 43.1875 25.515625 
Q 47.21875 21.78125 47.21875 15.09375 
Q 47.21875 7.46875 41.1875 3.015625 
Q 35.15625 -1.421875 24.609375 -1.421875 
Q 20.21875 -1.421875 15.453125 -0.5625 
Q 10.6875 0.296875 5.421875 2 
L 5.421875 11.28125 
Q 10.40625 8.6875 15.234375 7.390625 
Q 20.0625 6.109375 24.8125 6.109375 
Q 31.15625 6.109375 34.5625 8.28125 
Q 37.984375 10.453125 37.984375 14.40625 
Q 37.984375 18.0625 35.515625 20.015625 
Q 33.0625 21.96875 24.703125 23.78125 
L 21.578125 24.515625 
Q 13.234375 26.265625 9.515625 29.90625 
Q 5.8125 33.546875 5.8125 39.890625 
Q 5.8125 47.609375 11.28125 51.796875 
Q 16.75 56 26.8125 56 
Q 31.78125 56 36.171875 55.265625 
Q 40.578125 54.546875 44.28125 53.078125 
z
" id="DejaVuSans-115"/>
      <path d="M 30.609375 48.390625 
Q 23.390625 48.390625 19.1875 42.75 
Q 14.984375 37.109375 14.984375 27.296875 
Q 14.984375 17.484375 19.15625 11.84375 
Q 23.34375 6.203125 30.609375 6.203125 
Q 37.796875 6.203125 41.984375 11.859375 
Q 46.1875 17.53125 46.1875 27.296875 
Q 46.1875 37.015625 41.984375 42.703125 
Q 37.796875 48.390625 30.609375 48.390625 
z
M 30.609375 56 
Q 42.328125 56 49.015625 48.375 
Q 55.71875 40.765625 55.71875 27.296875 
Q 55.71875 13.875 49.015625 6.21875 
Q 42.328125 -1.421875 30.609375 -1.421875 
Q 18.84375 -1.421875 12.171875 6.21875 
Q 5.515625 13.875 5.515625 27.296875 
Q 5.515625 40.765625 12.171875 48.375 
Q 18.84375 56 30.609375 56 
z
" id="DejaVuSans-111"/>
      <path id="DejaVuSans-32"/>
     </defs>
     <g transform="translate(190.053125 280.276563)scale(0.1 -0.1)">
      <use xlink:href="#DejaVuSans-68"/>
      <use x="77.001953" xlink:href="#DejaVuSans-105"/>
      <use x="104.785156" xlink:href="#DejaVuSans-109"/>
      <use x="202.197266" xlink:href="#DejaVuSans-101"/>
      <use x="263.720703" xlink:href="#DejaVuSans-110"/>
      <use x="327.099609" xlink:href="#DejaVuSans-115"/>
      <use x="379.199219" xlink:href="#DejaVuSans-105"/>
      <use x="406.982422" xlink:href="#DejaVuSans-111"/>
      <use x="468.164062" xlink:href="#DejaVuSans-110"/>
      <use x="531.542969" xlink:href="#DejaVuSans-32"/>
      <use x="563.330078" xlink:href="#DejaVuSans-49"/>
     </g>
    </g>
   </g>
   <g id="matplotlib.axis_2">
    <g id="ytick_1">
     <g id="line2d_15">
      <path clip-path="url(#pa547e2bedb)" d="M 54 233.864747 
L 388.8 233.864747 
" style="fill:none;stroke:#b0b0b0;stroke-linecap:square;stroke-opacity:0.3;stroke-width:0.8;"/>
     </g>
     <g id="line2d_16">
      <defs>
       <path d="M 0 0 
L -3.5 0 
" id="m8c6e804b26" style="stroke:#000000;stroke-width:0.8;"/>
      </defs>
      <g>
       <use style="stroke:#000000;stroke-width:0.8;" x="54" xlink:href="#m8c6e804b26" y="233.864747"/>
      </g>
     </g>
     <g id="text_9">
      <!-- −1 -->
      <g transform="translate(32.257812 237.663966)scale(0.1 -0.1)">
       <use xlink:href="#DejaVuSans-8722"/>
       <use x="83.789062" xlink:href="#DejaVuSans-49"/>
      </g>
     </g>
    </g>
    <g id="ytick_2">
     <g id="line2d_17">
      <path clip-path="url(#pa547e2bedb)" d="M 54 196.928759 
L 388.8 196.928759 
" style="fill:none;stroke:#b0b0b0;stroke-linecap:square;stroke-opacity:0.3;stroke-width:0.8;"/>
     </g>
     <g id="line2d_18">
      <g>
       <use style="stroke:#000000;stroke-width:0.8;" x="54" xlink:href="#m8c6e804b26" y="196.928759"/>
      </g>
     </g>
     <g id="text_10">
      <!-- 0 -->
      <g transform="translate(40.6375 200.727978)scale(0.1 -0.1)">
       <use xlink:href="#DejaVuSans-48"/>
      </g>
     </g>
    </g>
    <g id="ytick_3">
     <g id="line2d_19">
      <path clip-path="url(#pa547e2bedb)" d="M 54 159.99277 
L 388.8 159.99277 
" style="fill:none;stroke:#b0b0b0;stroke-linecap:square;stroke-opacity:0.3;stroke-width:0.8;"/>
     </g>
     <g id="line2d_20">
      <g>
       <use style="stroke:#000000;stroke-width:0.8;" x="54" xlink:href="#m8c6e804b26" y="159.99277"/>
      </g>
     </g>
     <g id="text_11">
      <!-- 1 -->
      <g transform="translate(40.6375 163.791989)scale(0.1 -0.1)">
       <use xlink:href="#DejaVuSans-49"/>
      </g>
     </g>
    </g>
    <g id="ytick_4">
     <g id="line2d_21">
      <path clip-path="url(#pa547e2bedb)" d="M 54 123.056782 
L 388.8 123.056782 
" style="fill:none;stroke:#b0b0b0;stroke-linecap:square;stroke-opacity:0.3;stroke-width:0.8;"/>
     </g>
     <g id="line2d_22">
      <g>
       <use style="stroke:#000000;stroke-width:0.8;" x="54" xlink:href="#m8c6e804b26" y="123.056782"/>
      </g>
     </g>
     <g id="text_12">
      <!-- 2 -->
      <g transform="translate(40.6375 126.856)scale(0.1 -0.1)">
       <use xlink:href="#DejaVuSans-50"/>
      </g>
     </g>
    </g>
    <g id="ytick_5">
     <g id="line2d_23">
      <path clip-path="url(#pa547e2bedb)" d="M 54 86.120793 
L 388.8 86.120793 
" style="fill:none;stroke:#b0b0b0;stroke-linecap:square;stroke-opacity:0.3;stroke-width:0.8;"/>
     </g>
     <g id="line2d_24">
      <g>
       <use style="stroke:#000000;stroke-width:0.8;" x="54" xlink:href="#m8c6e804b26" y="86.120793"/>
      </g>
     </g>
     <g id="text_13">
      <!-- 3 -->
      <g transform="translate(40.6375 89.920012)scale(0.1 -0.1)">
       <use xlink:href="#DejaVuSans-51"/>
      </g>
     </g>
    </g>
    <g id="ytick_6">
     <g id="line2d_25">
      <path clip-path="url(#pa547e2bedb)" d="M 54 49.184804 
L 388.8 49.184804 
" style="fill:none;stroke:#b0b0b0;stroke-linecap:square;stroke-opacity:0.3;stroke-width:0.8;"/>
     </g>
     <g id="line2d_26">
      <g>
       <use style="stroke:#000000;stroke-width:0.8;" x="54" xlink:href="#m8c6e804b26" y="49.184804"/>
      </g>
     </g>
     <g id="text_14">
      <!-- 4 -->
      <g transform="translate(40.6375 52.984023)scale(0.1 -0.1)">
       <use xlink:href="#DejaVuSans-52"/>
      </g>
     </g>
    </g>
    <g id="text_15">
     <!-- Dimension 2 -->
     <g transform="translate(26.178125 174.626875)rotate(-90)scale(0.1 -0.1)">
      <use xlink:href="#DejaVuSans-68"/>
      <use x="77.001953" xlink:href="#DejaVuSans-105"/>
      <use x="104.785156" xlink:href="#DejaVuSans-109"/>
      <use x="202.197266" xlink:href="#DejaVuSans-101"/>
      <use x="263.720703" xlink:href="#DejaVuSans-110"/>
      <use x="327.099609" xlink:href="#DejaVuSans-115"/>
      <use x="379.199219" xlink:href="#DejaVuSans-105"/>
      <use x="406.982422" xlink:href="#DejaVuSans-111"/>
      <use x="468.164062" xlink:href="#DejaVuSans-110"/>
      <use x="531.542969" xlink:href="#DejaVuSans-32"/>
      <use x="563.330078" xlink:href="#DejaVuSans-50"/>
     </g>
    </g>
   </g>
   <g id="patch_3">
    <path d="M 54 252 
L 54 34.56 
" style="fill:none;stroke:#000000;stroke-linecap:square;stroke-linejoin:miter;stroke-width:0.8;"/>
   </g>
   <g id="patch_4">
    <path d="M 388.8 252 
L 388.8 34.56 
" style="fill:none;stroke:#000000;stroke-linecap:square;stroke-linejoin:miter;stroke-width:0.8;"/>
   </g>
   <g id="patch_5">
    <path d="M 54 252 
L 388.8 252 
" style="fill:none;stroke:#000000;stroke-linecap:square;stroke-linejoin:miter;stroke-width:0.8;"/>
   </g>
   <g id="patch_6">
    <path d="M 54 34.56 
L 388.8 34.56 
" style="fill:none;stroke:#000000;stroke-linecap:square;stroke-linejoin:miter;stroke-width:0.8;"/>
   </g>
   <g id="text_16">
    <!-- Two normal distributions and their centers -->
    <defs>
     <path d="M -0.296875 72.90625 
L 61.375 72.90625 
L 61.375 64.59375 
L 35.5 64.59375 
L 35.5 0 
L 25.59375 0 
L 25.59375 64.59375 
L -0.296875 64.59375 
z
" id="DejaVuSans-84"/>
     <path d="M 4.203125 54.6875 
L 13.1875 54.6875 
L 24.421875 12.015625 
L 35.59375 54.6875 
L 46.1875 54.6875 
L 57.421875 12.015625 
L 68.609375 54.6875 
L 77.59375 54.6875 
L 63.28125 0 
L 52.6875 0 
L 40.921875 44.828125 
L 29.109375 0 
L 18.5 0 
z
" id="DejaVuSans-119"/>
     <path d="M 41.109375 46.296875 
Q 39.59375 47.171875 37.8125 47.578125 
Q 36.03125 48 33.890625 48 
Q 26.265625 48 22.1875 43.046875 
Q 18.109375 38.09375 18.109375 28.8125 
L 18.109375 0 
L 9.078125 0 
L 9.078125 54.6875 
L 18.109375 54.6875 
L 18.109375 46.1875 
Q 20.953125 51.171875 25.484375 53.578125 
Q 30.03125 56 36.53125 56 
Q 37.453125 56 38.578125 55.875 
Q 39.703125 55.765625 41.0625 55.515625 
z
" id="DejaVuSans-114"/>
     <path d="M 34.28125 27.484375 
Q 23.390625 27.484375 19.1875 25 
Q 14.984375 22.515625 14.984375 16.5 
Q 14.984375 11.71875 18.140625 8.90625 
Q 21.296875 6.109375 26.703125 6.109375 
Q 34.1875 6.109375 38.703125 11.40625 
Q 43.21875 16.703125 43.21875 25.484375 
L 43.21875 27.484375 
z
M 52.203125 31.203125 
L 52.203125 0 
L 43.21875 0 
L 43.21875 8.296875 
Q 40.140625 3.328125 35.546875 0.953125 
Q 30.953125 -1.421875 24.3125 -1.421875 
Q 15.921875 -1.421875 10.953125 3.296875 
Q 6 8.015625 6 15.921875 
Q 6 25.140625 12.171875 29.828125 
Q 18.359375 34.515625 30.609375 34.515625 
L 43.21875 34.515625 
L 43.21875 35.40625 
Q 43.21875 41.609375 39.140625 45 
Q 35.0625 48.390625 27.6875 48.390625 
Q 23 48.390625 18.546875 47.265625 
Q 14.109375 46.140625 10.015625 43.890625 
L 10.015625 52.203125 
Q 14.9375 54.109375 19.578125 55.046875 
Q 24.21875 56 28.609375 56 
Q 40.484375 56 46.34375 49.84375 
Q 52.203125 43.703125 52.203125 31.203125 
z
" id="DejaVuSans-97"/>
     <path d="M 9.421875 75.984375 
L 18.40625 75.984375 
L 18.40625 0 
L 9.421875 0 
z
" id="DejaVuSans-108"/>
     <path d="M 45.40625 46.390625 
L 45.40625 75.984375 
L 54.390625 75.984375 
L 54.390625 0 
L 45.40625 0 
L 45.40625 8.203125 
Q 42.578125 3.328125 38.25 0.953125 
Q 33.9375 -1.421875 27.875 -1.421875 
Q 17.96875 -1.421875 11.734375 6.484375 
Q 5.515625 14.40625 5.515625 27.296875 
Q 5.515625 40.1875 11.734375 48.09375 
Q 17.96875 56 27.875 56 
Q 33.9375 56 38.25 53.625 
Q 42.578125 51.265625 45.40625 46.390625 
z
M 14.796875 27.296875 
Q 14.796875 17.390625 18.875 11.75 
Q 22.953125 6.109375 30.078125 6.109375 
Q 37.203125 6.109375 41.296875 11.75 
Q 45.40625 17.390625 45.40625 27.296875 
Q 45.40625 37.203125 41.296875 42.84375 
Q 37.203125 48.484375 30.078125 48.484375 
Q 22.953125 48.484375 18.875 42.84375 
Q 14.796875 37.203125 14.796875 27.296875 
z
" id="DejaVuSans-100"/>
     <path d="M 18.3125 70.21875 
L 18.3125 54.6875 
L 36.8125 54.6875 
L 36.8125 47.703125 
L 18.3125 47.703125 
L 18.3125 18.015625 
Q 18.3125 11.328125 20.140625 9.421875 
Q 21.96875 7.515625 27.59375 7.515625 
L 36.8125 7.515625 
L 36.8125 0 
L 27.59375 0 
Q 17.1875 0 13.234375 3.875 
Q 9.28125 7.765625 9.28125 18.015625 
L 9.28125 47.703125 
L 2.6875 47.703125 
L 2.6875 54.6875 
L 9.28125 54.6875 
L 9.28125 70.21875 
z
" id="DejaVuSans-116"/>
     <path d="M 48.6875 27.296875 
Q 48.6875 37.203125 44.609375 42.84375 
Q 40.53125 48.484375 33.40625 48.484375 
Q 26.265625 48.484375 22.1875 42.84375 
Q 18.109375 37.203125 18.109375 27.296875 
Q 18.109375 17.390625 22.1875 11.75 
Q 26.265625 6.109375 33.40625 6.109375 
Q 40.53125 6.109375 44.609375 11.75 
Q 48.6875 17.390625 48.6875 27.296875 
z
M 18.109375 46.390625 
Q 20.953125 51.265625 25.265625 53.625 
Q 29.59375 56 35.59375 56 
Q 45.5625 56 51.78125 48.09375 
Q 58.015625 40.1875 58.015625 27.296875 
Q 58.015625 14.40625 51.78125 6.484375 
Q 45.5625 -1.421875 35.59375 -1.421875 
Q 29.59375 -1.421875 25.265625 0.953125 
Q 20.953125 3.328125 18.109375 8.203125 
L 18.109375 0 
L 9.078125 0 
L 9.078125 75.984375 
L 18.109375 75.984375 
z
" id="DejaVuSans-98"/>
     <path d="M 8.5 21.578125 
L 8.5 54.6875 
L 17.484375 54.6875 
L 17.484375 21.921875 
Q 17.484375 14.15625 20.5 10.265625 
Q 23.53125 6.390625 29.59375 6.390625 
Q 36.859375 6.390625 41.078125 11.03125 
Q 45.3125 15.671875 45.3125 23.6875 
L 45.3125 54.6875 
L 54.296875 54.6875 
L 54.296875 0 
L 45.3125 0 
L 45.3125 8.40625 
Q 42.046875 3.421875 37.71875 1 
Q 33.40625 -1.421875 27.6875 -1.421875 
Q 18.265625 -1.421875 13.375 4.4375 
Q 8.5 10.296875 8.5 21.578125 
z
M 31.109375 56 
z
" id="DejaVuSans-117"/>
     <path d="M 54.890625 33.015625 
L 54.890625 0 
L 45.90625 0 
L 45.90625 32.71875 
Q 45.90625 40.484375 42.875 44.328125 
Q 39.84375 48.1875 33.796875 48.1875 
Q 26.515625 48.1875 22.3125 43.546875 
Q 18.109375 38.921875 18.109375 30.90625 
L 18.109375 0 
L 9.078125 0 
L 9.078125 75.984375 
L 18.109375 75.984375 
L 18.109375 46.1875 
Q 21.34375 51.125 25.703125 53.5625 
Q 30.078125 56 35.796875 56 
Q 45.21875 56 50.046875 50.171875 
Q 54.890625 44.34375 54.890625 33.015625 
z
" id="DejaVuSans-104"/>
     <path d="M 48.78125 52.59375 
L 48.78125 44.1875 
Q 44.96875 46.296875 41.140625 47.34375 
Q 37.3125 48.390625 33.40625 48.390625 
Q 24.65625 48.390625 19.8125 42.84375 
Q 14.984375 37.3125 14.984375 27.296875 
Q 14.984375 17.28125 19.8125 11.734375 
Q 24.65625 6.203125 33.40625 6.203125 
Q 37.3125 6.203125 41.140625 7.25 
Q 44.96875 8.296875 48.78125 10.40625 
L 48.78125 2.09375 
Q 45.015625 0.34375 40.984375 -0.53125 
Q 36.96875 -1.421875 32.421875 -1.421875 
Q 20.0625 -1.421875 12.78125 6.34375 
Q 5.515625 14.109375 5.515625 27.296875 
Q 5.515625 40.671875 12.859375 48.328125 
Q 20.21875 56 33.015625 56 
Q 37.15625 56 41.109375 55.140625 
Q 45.0625 54.296875 48.78125 52.59375 
z
" id="DejaVuSans-99"/>
    </defs>
    <g transform="translate(94.574063 28.56)scale(0.12 -0.12)">
     <use xlink:href="#DejaVuSans-84"/>
     <use x="44.583984" xlink:href="#DejaVuSans-119"/>
     <use x="126.371094" xlink:href="#DejaVuSans-111"/>
     <use x="187.552734" xlink:href="#DejaVuSans-32"/>
     <use x="219.339844" xlink:href="#DejaVuSans-110"/>
     <use x="282.71875" xlink:href="#DejaVuSans-111"/>
     <use x="343.900391" xlink:href="#DejaVuSans-114"/>
     <use x="383.263672" xlink:href="#DejaVuSans-109"/>
     <use x="480.675781" xlink:href="#DejaVuSans-97"/>
     <use x="541.955078" xlink:href="#DejaVuSans-108"/>
     <use x="569.738281" xlink:href="#DejaVuSans-32"/>
     <use x="601.525391" xlink:href="#DejaVuSans-100"/>
     <use x="665.001953" xlink:href="#DejaVuSans-105"/>
     <use x="692.785156" xlink:href="#DejaVuSans-115"/>
     <use x="744.884766" xlink:href="#DejaVuSans-116"/>
     <use x="784.09375" xlink:href="#DejaVuSans-114"/>
     <use x="825.207031" xlink:href="#DejaVuSans-105"/>
     <use x="852.990234" xlink:href="#DejaVuSans-98"/>
     <use x="916.466797" xlink:href="#DejaVuSans-117"/>
     <use x="979.845703" xlink:href="#DejaVuSans-116"/>
     <use x="1019.054688" xlink:href="#DejaVuSans-105"/>
     <use x="1046.837891" xlink:href="#DejaVuSans-111"/>
     <use x="1108.019531" xlink:href="#DejaVuSans-110"/>
     <use x="1171.398438" xlink:href="#DejaVuSans-115"/>
     <use x="1223.498047" xlink:href="#DejaVuSans-32"/>
     <use x="1255.285156" xlink:href="#DejaVuSans-97"/>
     <use x="1316.564453" xlink:href="#DejaVuSans-110"/>
     <use x="1379.943359" xlink:href="#DejaVuSans-100"/>
     <use x="1443.419922" xlink:href="#DejaVuSans-32"/>
     <use x="1475.207031" xlink:href="#DejaVuSans-116"/>
     <use x="1514.416016" xlink:href="#DejaVuSans-104"/>
     <use x="1577.794922" xlink:href="#DejaVuSans-101"/>
     <use x="1639.318359" xlink:href="#DejaVuSans-105"/>
     <use x="1667.101562" xlink:href="#DejaVuSans-114"/>
     <use x="1708.214844" xlink:href="#DejaVuSans-32"/>
     <use x="1740.001953" xlink:href="#DejaVuSans-99"/>
     <use x="1794.982422" xlink:href="#DejaVuSans-101"/>
     <use x="1856.505859" xlink:href="#DejaVuSans-110"/>
     <use x="1919.884766" xlink:href="#DejaVuSans-116"/>
     <use x="1959.09375" xlink:href="#DejaVuSans-101"/>
     <use x="2020.617188" xlink:href="#DejaVuSans-114"/>
     <use x="2061.730469" xlink:href="#DejaVuSans-115"/>
    </g>
   </g>
   <g id="legend_1">
    <g id="patch_7">
     <path d="M 61 57.238125 
L 130.382812 57.238125 
Q 132.382812 57.238125 132.382812 55.238125 
L 132.382812 41.56 
Q 132.382812 39.56 130.382812 39.56 
L 61 39.56 
Q 59 39.56 59 41.56 
L 59 55.238125 
Q 59 57.238125 61 57.238125 
z
" style="fill:#ffffff;opacity:0.8;stroke:#cccccc;stroke-linejoin:miter;"/>
    </g>
    <g id="PathCollection_5">
     <g>
      <use style="stroke:#000000;" x="73" xlink:href="#m71b7f4b6aa" y="48.533437"/>
     </g>
    </g>
    <g id="text_17">
     <!-- centers -->
     <g transform="translate(91 51.158437)scale(0.1 -0.1)">
      <use xlink:href="#DejaVuSans-99"/>
      <use x="54.980469" xlink:href="#DejaVuSans-101"/>
      <use x="116.503906" xlink:href="#DejaVuSans-110"/>
      <use x="179.882812" xlink:href="#DejaVuSans-116"/>
      <use x="219.091797" xlink:href="#DejaVuSans-101"/>
      <use x="280.615234" xlink:href="#DejaVuSans-114"/>
      <use x="321.728516" xlink:href="#DejaVuSans-115"/>
     </g>
    </g>
   </g>
  </g>
 </g>
 <defs>
  <clipPath id="pa547e2bedb">
   <rect height="217.44" width="334.8" x="54" y="34.56"/>
  </clipPath>
 </defs>
</svg>
